<svg width="1200" height="900" viewBox="0 0 1200 900" fill="none" xmlns="http://www.w3.org/2000/svg">
  <rect width="1200" height="900" rx="120" fill="url(#bg)"/>
  <g filter="url(#blur)">
    <circle cx="360" cy="320" r="220" fill="url(#halo)"/>
    <circle cx="870" cy="360" r="260" fill="url(#bloom)"/>
    <path d="M140 700C220 610 380 560 520 596C660 632 740 740 680 808C620 876 468 872 334 826C200 780 60 790 140 700Z" fill="url(#wave)"/>
  </g>
  <rect x="100" y="100" width="1000" height="700" rx="96" stroke="white" stroke-opacity="0.48" stroke-width="2"/>
  <defs>
    <linearGradient id="bg" x1="0" y1="0" x2="1200" y2="900" gradientUnits="userSpaceOnUse">
      <stop stop-color="#F7F1EA"/>
      <stop offset="0.5" stop-color="#F1E5DB"/>
      <stop offset="1" stop-color="#E8EEF3"/>
    </linearGradient>
    <radialGradient id="halo" cx="0" cy="0" r="1" gradientUnits="userSpaceOnUse" gradientTransform="translate(360 320) rotate(90) scale(220)">
      <stop stop-color="#D8E8F5" stop-opacity="0.9"/>
      <stop offset="1" stop-color="#F5E2D4" stop-opacity="0.5"/>
    </radialGradient>
    <radialGradient id="bloom" cx="0" cy="0" r="1" gradientUnits="userSpaceOnUse" gradientTransform="translate(870 360) rotate(90) scale(260)">
      <stop stop-color="#F3D8C8" stop-opacity="0.85"/>
      <stop offset="1" stop-color="#D6E6F0" stop-opacity="0.5"/>
    </radialGradient>
    <linearGradient id="wave" x1="140" y1="600" x2="720" y2="860" gradientUnits="userSpaceOnUse">
      <stop stop-color="#E4EEF6" stop-opacity="0.85"/>
      <stop offset="1" stop-color="#F0D9C8" stop-opacity="0.6"/>
    </linearGradient>
    <filter id="blur" x="-120" y="-120" width="1440" height="1140" filterUnits="userSpaceOnUse" color-interpolation-filters="sRGB">
      <feGaussianBlur stdDeviation="16"/>
    </filter>
  </defs>
</svg>
